<?xml version="1.0" encoding="UTF-8"?>
<!DOCTYPE svg PUBLIC "-//W3C//DTD SVG 1.1//EN" "http://www.w3.org/Graphics/SVG/1.1/DTD/svg11.dtd">
<svg xmlns="http://www.w3.org/2000/svg" version="1.1" width="299px" height="122px" style="shape-rendering:geometricPrecision; text-rendering:geometricPrecision; image-rendering:optimizeQuality; fill-rule:evenodd; clip-rule:evenodd" xmlns:xlink="http://www.w3.org/1999/xlink">
<g><path style="opacity:0.918" fill="#1c1c1a" d="M 13.5,40.5 C 17.1064,40.2108 20.6064,40.5442 24,41.5C 27.6667,51.1667 31.3333,60.8333 35,70.5C 37.4134,60.6002 39.2467,50.6002 40.5,40.5C 43.8984,40.1796 47.2317,40.513 50.5,41.5C 47.4477,56.0951 44.781,70.7617 42.5,85.5C 38.774,85.8226 35.1073,85.4892 31.5,84.5C 27.6667,74.8333 23.8333,65.1667 20,55.5C 17.8425,65.4529 16.0092,75.4529 14.5,85.5C 11.5,85.5 8.5,85.5 5.5,85.5C 7.63165,70.3748 10.2983,55.3748 13.5,40.5 Z"/></g>
<g><path style="opacity:0.914" fill="#1d1d1a" d="M 102.5,51.5 C 102.5,52.1667 102.5,52.8333 102.5,53.5C 101.952,55.6264 101.285,57.6264 100.5,59.5C 99.1667,59.5 97.8333,59.5 96.5,59.5C 95.0672,67.8321 93.5672,76.1654 92,84.5C 88.8753,85.7874 85.7087,85.7874 82.5,84.5C 84.1667,76.5 85.8333,68.5 87.5,60.5C 86.1667,59.8333 84.8333,59.1667 83.5,58.5C 84.3742,56.2534 84.7076,53.9201 84.5,51.5C 86.1667,51.5 87.8333,51.5 89.5,51.5C 89.7244,47.8212 90.0578,44.1545 90.5,40.5C 93.5,40.5 96.5,40.5 99.5,40.5C 99.2756,44.1788 98.9422,47.8455 98.5,51.5C 99.8333,51.5 101.167,51.5 102.5,51.5 Z"/></g>
<g><path style="opacity:0.913" fill="#fde200" d="M 136.5,48.5 C 133.061,48.7471 129.728,48.4137 126.5,47.5C 129.575,41.4622 134.575,38.7956 141.5,39.5C 141.037,42.4824 140.704,45.4824 140.5,48.5C 139.167,48.5 137.833,48.5 136.5,48.5 Z"/></g>
<g><path style="opacity:0.933" fill="#fcdc00" d="M 110.5,52.5 C 107.946,53.388 105.279,53.7214 102.5,53.5C 102.5,52.8333 102.5,52.1667 102.5,51.5C 102.942,47.8455 103.276,44.1788 103.5,40.5C 106.85,40.335 110.183,40.5017 113.5,41C 112.439,44.9173 111.439,48.7506 110.5,52.5 Z"/></g>
<g><path style="opacity:0.954" fill="#f39a01" d="M 286.5,61.5 C 281.729,55.3904 276.062,50.3904 269.5,46.5C 275.931,42.6971 282.598,42.5305 289.5,46C 290.743,47.1545 291.743,48.4878 292.5,50C 291.398,54.3733 289.398,58.2067 286.5,61.5 Z"/></g>
<g><path style="opacity:0.919" fill="#fddf00" d="M 115.5,40.5 C 118.5,40.5 121.5,40.5 124.5,40.5C 123.908,43.1272 123.575,45.7938 123.5,48.5C 120.5,48.5 117.5,48.5 114.5,48.5C 114.401,45.7628 114.735,43.0961 115.5,40.5 Z"/></g>
<g><path style="opacity:0.831" fill="#ee7908" d="M 211.5,49.5 C 208.227,52.1442 204.56,54.3109 200.5,56C 201.737,56.2321 202.737,56.7321 203.5,57.5C 198.684,56.8392 194.351,57.8392 190.5,60.5C 189.167,61.5 187.833,62.5 186.5,63.5C 191.387,52.993 199.72,48.3263 211.5,49.5 Z"/></g>
<g><path style="opacity:0.907" fill="#1c1c1a" d="M 63.5,50.5 C 79.0953,49.7649 85.4286,57.0983 82.5,72.5C 73.8333,72.5 65.1667,72.5 56.5,72.5C 56.9307,76.568 59.264,78.568 63.5,78.5C 66.37,78.3983 68.7033,77.2317 70.5,75C 80.8638,72.9137 82.5305,75.247 75.5,82C 69.4602,86.176 62.7935,87.5094 55.5,86C 46.4601,80.1992 44.2934,72.3659 49,62.5C 52.399,56.7237 57.2323,52.7237 63.5,50.5 Z M 65.5,58.5 C 70.0058,58.2522 73.0058,60.2522 74.5,64.5C 68.8625,65.6632 63.1959,65.8299 57.5,65C 59.2792,61.6263 61.9458,59.4596 65.5,58.5 Z"/></g>
<g><path style="opacity:0.973" fill="#f5ae01" d="M 269.5,46.5 C 276.062,50.3904 281.729,55.3904 286.5,61.5C 284.889,65.0515 282.556,68.0515 279.5,70.5C 274.881,65.2148 269.881,60.2148 264.5,55.5C 265.41,52.0078 267.076,49.0078 269.5,46.5 Z"/></g>
<g><path style="opacity:0.966" fill="#facb00" d="M 126.5,47.5 C 129.728,48.4137 133.061,48.7471 136.5,48.5C 133.693,51.0443 134.36,52.0443 138.5,51.5C 138.702,53.9496 138.369,56.283 137.5,58.5C 129.167,58.5 120.833,58.5 112.5,58.5C 112.318,56.4086 112.652,54.4086 113.5,52.5C 117.5,51.8333 121.5,51.1667 125.5,50.5C 126.127,49.5832 126.461,48.5832 126.5,47.5 Z"/></g>
<g><path style="opacity:0.983" fill="#eb610e" d="M 211.5,49.5 C 216.212,49.6921 220.212,51.3588 223.5,54.5C 220.507,56.6634 217.173,58.33 213.5,59.5C 212.702,59.9569 212.369,60.6236 212.5,61.5C 209.878,59.3565 206.878,58.0231 203.5,57.5C 202.737,56.7321 201.737,56.2321 200.5,56C 204.56,54.3109 208.227,52.1442 211.5,49.5 Z"/></g>
<g><path style="opacity:0.955" fill="#f7b801" d="M 110.5,52.5 C 109.716,59.2013 108.716,65.868 107.5,72.5C 104.5,72.5 101.5,72.5 98.5,72.5C 98.9088,68.1235 99.5755,63.7902 100.5,59.5C 101.285,57.6264 101.952,55.6264 102.5,53.5C 105.279,53.7214 107.946,53.388 110.5,52.5 Z"/></g>
<g><path style="opacity:0.903" fill="#f6b001" d="M 112.5,58.5 C 120.833,58.5 129.167,58.5 137.5,58.5C 137.5,58.8333 137.5,59.1667 137.5,59.5C 135.833,59.5 134.167,59.5 132.5,59.5C 132.129,65.0755 131.129,70.4089 129.5,75.5C 126.5,75.5 123.5,75.5 120.5,75.5C 121.926,70.2786 122.926,64.9452 123.5,59.5C 122.5,59.5 121.5,59.5 120.5,59.5C 120.129,65.0755 119.129,70.4089 117.5,75.5C 114.615,75.8064 111.948,75.4731 109.5,74.5C 110.011,68.9506 111.011,63.6173 112.5,58.5 Z"/></g>
<g><path style="opacity:0.901" fill="#f9c200" d="M 170.5,63.5 C 167.5,63.5 164.5,63.5 161.5,63.5C 156.342,57.0968 151.009,57.0968 145.5,63.5C 142.167,63.5 138.833,63.5 135.5,63.5C 136.167,62.1667 136.833,60.8333 137.5,59.5C 143.408,52.2492 151.075,49.4158 160.5,51C 166.228,53.2301 169.561,57.3968 170.5,63.5 Z"/></g>
<g><path style="opacity:0.969" fill="#fcdc00" d="M 203.5,57.5 C 206.878,58.0231 209.878,59.3565 212.5,61.5C 212.833,62.1667 213.167,62.8333 213.5,63.5C 208.951,62.0971 204.951,63.0971 201.5,66.5C 197.638,64.7381 193.972,62.7381 190.5,60.5C 194.351,57.8392 198.684,56.8392 203.5,57.5 Z"/></g>
<g><path style="opacity:1" fill="#e84815" d="M 223.5,54.5 C 226.811,55.8114 229.145,58.1447 230.5,61.5C 226.306,64.5969 221.639,66.5969 216.5,67.5C 215.512,66.205 214.512,64.8717 213.5,63.5C 213.167,62.8333 212.833,62.1667 212.5,61.5C 212.369,60.6236 212.702,59.9569 213.5,59.5C 217.173,58.33 220.507,56.6634 223.5,54.5 Z"/></g>
<g><path style="opacity:0.915" fill="#f9c200" d="M 190.5,60.5 C 193.972,62.7381 197.638,64.7381 201.5,66.5C 200.066,69.0472 198.4,71.3805 196.5,73.5C 192.062,72.1147 187.729,70.448 183.5,68.5C 184.263,66.6316 185.263,64.9649 186.5,63.5C 187.833,62.5 189.167,61.5 190.5,60.5 Z"/></g>
<g><path style="opacity:0.964" fill="#dd2b20" d="M 230.5,61.5 C 233.23,67.2935 236.23,72.9601 239.5,78.5C 236.397,80.3843 233.063,81.7176 229.5,82.5C 223.535,78.8974 219.202,73.8974 216.5,67.5C 221.639,66.5969 226.306,64.5969 230.5,61.5 Z"/></g>
<g><path style="opacity:0.975" fill="#f9c400" d="M 264.5,55.5 C 269.881,60.2148 274.881,65.2148 279.5,70.5C 276.149,73.8482 272.482,76.8482 268.5,79.5C 265.335,76.0899 261.668,73.4232 257.5,71.5C 259.463,65.924 261.796,60.5907 264.5,55.5 Z"/></g>
<g><path style="opacity:0.896" fill="#f4a401" d="M 135.5,63.5 C 138.833,63.5 142.167,63.5 145.5,63.5C 145.389,64.1174 145.056,64.6174 144.5,65C 147.333,65.1667 150.167,65.3333 153,65.5C 156.252,65.4809 159.085,64.8142 161.5,63.5C 164.5,63.5 167.5,63.5 170.5,63.5C 170.296,66.5176 169.963,69.5176 169.5,72.5C 160.833,72.5 152.167,72.5 143.5,72.5C 143.5,73.5 143.5,74.5 143.5,75.5C 140.5,75.5 137.5,75.5 134.5,75.5C 133.299,71.5141 133.633,67.5141 135.5,63.5 Z"/></g>
<g><path style="opacity:0.947" fill="#f5aa01" d="M 183.5,68.5 C 187.729,70.448 192.062,72.1147 196.5,73.5C 195.396,75.3885 194.063,77.0552 192.5,78.5C 188.749,77.0271 185.083,75.3604 181.5,73.5C 182.441,71.9505 183.107,70.2838 183.5,68.5 Z"/></g>
<g><path style="opacity:0.947" fill="#fbd700" d="M 257.5,71.5 C 261.668,73.4232 265.335,76.0899 268.5,79.5C 264.584,82.2895 260.251,84.2895 255.5,85.5C 252.069,84.8653 248.736,83.8653 245.5,82.5C 250.152,79.5137 254.152,75.8471 257.5,71.5 Z"/></g>
<g><path style="opacity:0.873" fill="#f08802" d="M 181.5,73.5 C 185.083,75.3604 188.749,77.0271 192.5,78.5C 183.97,87.1516 174.637,87.8182 164.5,80.5C 156.414,87.1166 147.748,88.1166 138.5,83.5C 136.095,81.3577 134.762,78.691 134.5,75.5C 137.5,75.5 140.5,75.5 143.5,75.5C 148.31,79.6437 152.977,79.477 157.5,75C 160.882,74.1764 164.216,74.343 167.5,75.5C 166.167,76.6199 165.667,77.9532 166,79.5C 168.894,82.3676 172.061,82.8676 175.5,81C 178.094,78.9135 180.094,76.4135 181.5,73.5 Z"/></g>
<g><path style="opacity:0.875" fill="#f08b02" d="M 98.5,72.5 C 101.5,72.5 104.5,72.5 107.5,72.5C 106.565,76.4348 105.731,80.4348 105,84.5C 101.875,85.7874 98.7087,85.7874 95.5,84.5C 96.5045,80.4705 97.5045,76.4705 98.5,72.5 Z"/></g>
<g><path style="opacity:0.92" fill="#f08802" d="M 109.5,74.5 C 111.948,75.4731 114.615,75.8064 117.5,75.5C 117.384,78.8599 117.051,82.1933 116.5,85.5C 113.5,85.5 110.5,85.5 107.5,85.5C 107.646,81.6125 108.313,77.9458 109.5,74.5 Z"/></g>
<g><path style="opacity:0.917" fill="#f08802" d="M 120.5,75.5 C 123.5,75.5 126.5,75.5 129.5,75.5C 129.167,78.8333 128.833,82.1667 128.5,85.5C 125.5,85.5 122.5,85.5 119.5,85.5C 119.616,82.1401 119.949,78.8067 120.5,75.5 Z"/></g>
<g><path style="opacity:1" fill="#a72332" d="M 239.5,78.5 C 240.833,79.5 242.167,80.5 243.5,81.5C 240.899,82.8007 238.232,84.134 235.5,85.5C 233.181,85.0075 231.181,84.0075 229.5,82.5C 233.063,81.7176 236.397,80.3843 239.5,78.5 Z"/></g>
<g><path style="opacity:1" fill="#7e2440" d="M 243.5,81.5 C 244.167,81.8333 244.833,82.1667 245.5,82.5C 248.736,83.8653 252.069,84.8653 255.5,85.5C 248.833,88.1667 242.167,88.1667 235.5,85.5C 238.232,84.134 240.899,82.8007 243.5,81.5 Z"/></g>
</svg>
